<?xml version="1.0" encoding="UTF-8" standalone="no"?>
<!-- Created with Inkscape (http://www.inkscape.org/) -->

<svg
   xmlns:dc="http://purl.org/dc/elements/1.1/"
   xmlns:cc="http://creativecommons.org/ns#"
   xmlns:rdf="http://www.w3.org/1999/02/22-rdf-syntax-ns#"
   xmlns:svg="http://www.w3.org/2000/svg"
   xmlns="http://www.w3.org/2000/svg"
   xmlns:xlink="http://www.w3.org/1999/xlink"
   xmlns:sodipodi="http://sodipodi.sourceforge.net/DTD/sodipodi-0.dtd"
   xmlns:inkscape="http://www.inkscape.org/namespaces/inkscape"
   width="210mm"
   height="297mm"
   viewBox="0 0 210 297"
   version="1.1"
   id="svg8"
   inkscape:version="0.92.4 (5da689c313, 2019-01-14)"
   sodipodi:docname="Berry.svg">
  <defs
     id="defs2">
    <linearGradient
       inkscape:collect="always"
       id="linearGradient370">
      <stop
         style="stop-color:#d40000;stop-opacity:1"
         offset="0"
         id="stop366" />
      <stop
         style="stop-color:#ff2a2a;stop-opacity:1"
         offset="1"
         id="stop368" />
    </linearGradient>
    <linearGradient
       inkscape:collect="always"
       xlink:href="#linearGradient370"
       id="linearGradient372"
       x1="437.3566"
       y1="772.32007"
       x2="417.23132"
       y2="414.25186"
       gradientUnits="userSpaceOnUse" />
  </defs>
  <sodipodi:namedview
     id="base"
     pagecolor="#ffffff"
     bordercolor="#666666"
     borderopacity="1.0"
     inkscape:pageopacity="0.0"
     inkscape:pageshadow="2"
     inkscape:zoom="0.7"
     inkscape:cx="683.40697"
     inkscape:cy="526.63973"
     inkscape:document-units="mm"
     inkscape:current-layer="layer1"
     showgrid="false"
     inkscape:snap-global="false"
     inkscape:window-width="1920"
     inkscape:window-height="1057"
     inkscape:window-x="-8"
     inkscape:window-y="-8"
     inkscape:window-maximized="1"
     showguides="false" />
  <metadata
     id="metadata5">
    <rdf:RDF>
      <cc:Work
         rdf:about="">
        <dc:format>image/svg+xml</dc:format>
        <dc:type
           rdf:resource="http://purl.org/dc/dcmitype/StillImage" />
        <dc:title></dc:title>
      </cc:Work>
    </rdf:RDF>
  </metadata>
  <g
     inkscape:label="Layer 1"
     inkscape:groupmode="layer"
     id="layer1">
    <path
       style="opacity:1;fill:url(#linearGradient372);fill-opacity:1;stroke:none;stroke-width:2.85714293;stroke-linecap:round;stroke-linejoin:round;stroke-miterlimit:4;stroke-dasharray:none;stroke-opacity:1"
       d="m 374.64301,342.07136 c -9.81354,2.62739 -20.65554,5.21353 -29.07923,10.4269 -3.78471,48.74837 -30.41677,92.3313 -62.19264,128.14569 -12.3325,12.64899 -22.63754,27.6864 -36.84754,38.29403 -10.36485,6.10362 -18.3472,-6.02101 -21.45927,-14.41963 -9.47829,-22.03818 -9.04145,-46.63536 -9.51172,-70.1702 -16.75624,18.84502 -26.47779,43.1917 -35.60268,66.6183 -7.58722,25.48719 -4.53136,52.8923 -3.74721,78.76395 2.82532,44.02638 22.20296,86.51994 49.57153,120.9471 43.09895,51.63793 98.52302,91.16423 156.53897,124.48817 22.15542,12.978 46.01727,23.27564 70.1674,31.91406 26.94222,-32.03346 46.06692,-69.90989 69.2934,-104.74615 19.0888,-31.53961 36.12989,-64.27138 53.95159,-96.52617 16.9369,-35.25756 33.78243,-71.2289 44.72097,-108.98996 3.47109,-29.88625 3.65381,-61.00627 -2.65624,-90.67801 -4.53313,-23.96727 -17.23677,-45.0262 -30.60399,-64.99385 -9.60194,-15.33775 -24.13053,-28.085 -39.77548,-36.59934 -14.79702,4.50613 -30.19115,7.08045 -45.06418,11.1635 -36.58665,2.9966 -74.30527,0.008 -108.16484,-15.13527 -6.61338,-2.5208 -13.22027,-5.57818 -19.53884,-8.50312 z"
       id="path356"
       inkscape:connector-curvature="0"
       transform="scale(0.26458333)" />
    <path
       style="fill:#ffffff;stroke:none;stroke-width:0.26458332px;stroke-linecap:butt;stroke-linejoin:miter;stroke-opacity:1"
       d="m 67.899732,196.31618 c -0.681074,-2.03343 -0.574271,-4.20687 -0.56068,-6.31972 -0.06718,-0.63944 0.218779,-1.42913 0.902904,-1.59802 0.633162,-0.15783 1.336784,0.36078 1.370027,1.01324 0.675814,2.1102 0.975335,4.40638 0.443019,6.58339 -0.252152,0.81622 -0.917769,1.40036 -1.509928,1.97574"
       id="path115-02"
       inkscape:connector-curvature="0" />
    <path
       style="fill:#ffffff;stroke:none;stroke-width:0.26458332px;stroke-linecap:butt;stroke-linejoin:miter;stroke-opacity:1"
       d="m 66.11214,145.89818 c -0.681074,-2.03343 -0.574271,-4.20687 -0.56068,-6.31972 -0.06718,-0.63944 0.218779,-1.42913 0.902904,-1.59802 0.633162,-0.15783 1.336784,0.36078 1.370027,1.01324 0.675814,2.1102 0.975335,4.40638 0.443019,6.58339 -0.252152,0.81622 -0.917769,1.40036 -1.509928,1.97574"
       id="path115"
       inkscape:connector-curvature="0" />
    <path
       style="fill:#ffffff;stroke:none;stroke-width:0.26458332px;stroke-linecap:butt;stroke-linejoin:miter;stroke-opacity:1"
       d="m 78.45238,131.49876 c -0.681074,-2.03343 -0.574271,-4.20687 -0.56068,-6.31972 -0.06718,-0.63944 0.218779,-1.42913 0.902904,-1.59802 0.633162,-0.15783 1.336784,0.36078 1.370027,1.01324 0.675814,2.1102 0.975335,4.40638 0.443019,6.58339 -0.252152,0.81622 -0.917769,1.40036 -1.509928,1.97574"
       id="path115-3"
       inkscape:connector-curvature="0" />
    <path
       style="fill:#ffffff;stroke:none;stroke-width:0.26458332px;stroke-linecap:butt;stroke-linejoin:miter;stroke-opacity:1"
       d="m 96.092169,140.05138 c -0.681074,-2.03343 -0.574271,-4.20687 -0.56068,-6.31972 -0.06718,-0.63944 0.218779,-1.42913 0.902904,-1.59802 0.633162,-0.15783 1.336784,0.36078 1.370027,1.01324 0.675814,2.1102 0.975335,4.40638 0.443019,6.58339 -0.252152,0.81622 -0.917769,1.40036 -1.509928,1.97574"
       id="path115-2"
       inkscape:connector-curvature="0" />
    <path
       style="fill:#ffffff;stroke:none;stroke-width:0.26458332px;stroke-linecap:butt;stroke-linejoin:miter;stroke-opacity:1"
       d="m 103.84299,120.27344 c -0.68108,-2.03343 -0.57428,-4.20687 -0.56068,-6.31972 -0.0672,-0.63944 0.21877,-1.42913 0.9029,-1.59802 0.63316,-0.15783 1.33678,0.36078 1.37003,1.01324 0.67581,2.1102 0.97533,4.40638 0.44302,6.58339 -0.25216,0.81622 -0.91777,1.40036 -1.50993,1.97574"
       id="path115-21"
       inkscape:connector-curvature="0" />
    <path
       style="fill:#ffffff;stroke:none;stroke-width:0.26458332px;stroke-linecap:butt;stroke-linejoin:miter;stroke-opacity:1"
       d="m 120.14643,133.36965 c -0.68108,-2.03343 -0.57427,-4.20687 -0.56068,-6.31972 -0.0672,-0.63944 0.21878,-1.42913 0.9029,-1.59802 0.63316,-0.15783 1.33679,0.36078 1.37003,1.01324 0.67581,2.1102 0.97533,4.40638 0.44302,6.58339 -0.25215,0.81622 -0.91777,1.40036 -1.50993,1.97574"
       id="path115-8"
       inkscape:connector-curvature="0" />
    <path
       style="fill:#ffffff;stroke:none;stroke-width:0.26458332px;stroke-linecap:butt;stroke-linejoin:miter;stroke-opacity:1"
       d="m 126.29362,111.98808 c -0.68107,-2.03343 -0.57427,-4.20687 -0.56068,-6.31972 -0.0672,-0.63944 0.21878,-1.42913 0.90291,-1.59802 0.63316,-0.15783 1.33678,0.36078 1.37002,1.01324 0.67582,2.1102 0.97534,4.40638 0.44302,6.58339 -0.25215,0.81622 -0.91777,1.40036 -1.50993,1.97574"
       id="path115-0"
       inkscape:connector-curvature="0" />
    <path
       style="fill:#ffffff;stroke:none;stroke-width:0.26458332px;stroke-linecap:butt;stroke-linejoin:miter;stroke-opacity:1"
       d="m 135.38079,127.75698 c -0.68107,-2.03343 -0.57427,-4.20687 -0.56068,-6.31972 -0.0672,-0.63944 0.21878,-1.42913 0.9029,-1.59802 0.63317,-0.15783 1.33679,0.36078 1.37003,1.01324 0.67581,2.1102 0.97534,4.40638 0.44302,6.58339 -0.25215,0.81622 -0.91777,1.40036 -1.50993,1.97574"
       id="path115-85"
       inkscape:connector-curvature="0" />
    <path
       style="fill:#ffffff;stroke:none;stroke-width:0.26458332px;stroke-linecap:butt;stroke-linejoin:miter;stroke-opacity:1"
       d="m 131.37175,149.40582 c -0.68108,-2.03343 -0.57427,-4.20687 -0.56068,-6.31972 -0.0672,-0.63944 0.21878,-1.42913 0.9029,-1.59802 0.63316,-0.15783 1.33679,0.36078 1.37003,1.01324 0.67581,2.1102 0.97533,4.40638 0.44302,6.58339 -0.25215,0.81622 -0.91777,1.40036 -1.50993,1.97574"
       id="path115-31"
       inkscape:connector-curvature="0" />
    <path
       style="fill:#ffffff;stroke:none;stroke-width:0.26458332px;stroke-linecap:butt;stroke-linejoin:miter;stroke-opacity:1"
       d="m 112.39561,154.75121 c -0.68107,-2.03343 -0.57427,-4.20687 -0.56068,-6.31972 -0.0672,-0.63944 0.21878,-1.42913 0.9029,-1.59802 0.63317,-0.15783 1.33679,0.36078 1.37003,1.01324 0.67581,2.1102 0.97534,4.40638 0.44302,6.58339 -0.25215,0.81622 -0.91777,1.40036 -1.50993,1.97574"
       id="path115-7"
       inkscape:connector-curvature="0" />
    <path
       style="fill:#ffffff;stroke:none;stroke-width:0.26458332px;stroke-linecap:butt;stroke-linejoin:miter;stroke-opacity:1"
       d="m 86.470463,160.09659 c -0.68107,-2.03343 -0.57427,-4.20687 -0.56068,-6.31972 -0.0672,-0.63944 0.21878,-1.42913 0.90291,-1.59802 0.63316,-0.15783 1.33678,0.36078 1.37002,1.01324 0.67582,2.1102 0.97534,4.40638 0.44302,6.58339 -0.25215,0.81622 -0.91777,1.40036 -1.50992,1.97574"
       id="path115-72"
       inkscape:connector-curvature="0" />
    <path
       style="fill:#ffffff;stroke:none;stroke-width:0.26458332px;stroke-linecap:butt;stroke-linejoin:miter;stroke-opacity:1"
       d="m 69.899755,170.25284 c -0.681074,-2.03343 -0.574271,-4.20687 -0.56068,-6.31972 -0.06718,-0.63944 0.218779,-1.42913 0.902904,-1.59802 0.633162,-0.15783 1.336784,0.36078 1.370027,1.01324 0.675814,2.1102 0.975335,4.40638 0.443019,6.58339 -0.252152,0.81622 -0.917769,1.40036 -1.509928,1.97574"
       id="path115-1"
       inkscape:connector-curvature="0" />
    <path
       style="fill:#ffffff;stroke:none;stroke-width:0.26458332px;stroke-linecap:butt;stroke-linejoin:miter;stroke-opacity:1"
       d="m 84.33231,184.68539 c -0.681074,-2.03343 -0.574271,-4.20687 -0.560681,-6.31972 -0.06718,-0.63944 0.21878,-1.42913 0.902905,-1.59802 0.633162,-0.15783 1.336784,0.36078 1.370027,1.01324 0.675814,2.1102 0.975335,4.40638 0.443019,6.58339 -0.252152,0.81622 -0.917769,1.40036 -1.509928,1.97574"
       id="path115-6"
       inkscape:connector-curvature="0" />
    <path
       style="fill:#ffffff;stroke:none;stroke-width:0.26458332px;stroke-linecap:butt;stroke-linejoin:miter;stroke-opacity:1"
       d="m 101.9721,176.66731 c -0.68108,-2.03343 -0.57427,-4.20687 -0.56068,-6.31972 -0.0672,-0.63944 0.21878,-1.42913 0.9029,-1.59802 0.63316,-0.15783 1.33679,0.36078 1.37003,1.01324 0.67581,2.1102 0.97533,4.40638 0.44302,6.58339 -0.25215,0.81622 -0.91777,1.40036 -1.50993,1.97574"
       id="path115-34"
       inkscape:connector-curvature="0" />
    <path
       style="fill:#ffffff;stroke:none;stroke-width:0.26458332px;stroke-linecap:butt;stroke-linejoin:miter;stroke-opacity:1"
       d="m 123.62093,172.65826 c -0.68108,-2.03343 -0.57427,-4.20687 -0.56068,-6.31972 -0.0672,-0.63944 0.21878,-1.42913 0.9029,-1.59802 0.63316,-0.15783 1.33678,0.36078 1.37003,1.01324 0.67581,2.1102 0.97533,4.40638 0.44302,6.58339 -0.25216,0.81622 -0.91777,1.40036 -1.50993,1.97574"
       id="path115-37"
       inkscape:connector-curvature="0" />
    <path
       style="fill:#ffffff;stroke:none;stroke-width:0.26458332px;stroke-linecap:butt;stroke-linejoin:miter;stroke-opacity:1"
       d="m 135.38079,182.0127 c -0.68107,-2.03343 -0.57427,-4.20687 -0.56068,-6.31972 -0.0672,-0.63944 0.21878,-1.42913 0.9029,-1.59802 0.63317,-0.15783 1.33679,0.36078 1.37003,1.01324 0.67581,2.1102 0.97534,4.40638 0.44302,6.58339 -0.25215,0.81622 -0.91777,1.40036 -1.50993,1.97574"
       id="path115-4"
       inkscape:connector-curvature="0" />
    <path
       style="fill:#ffffff;stroke:none;stroke-width:0.26458332px;stroke-linecap:butt;stroke-linejoin:miter;stroke-opacity:1"
       d="m 115.87011,190.8326 c -0.68107,-2.03343 -0.57427,-4.20687 -0.56068,-6.31972 -0.0672,-0.63944 0.21878,-1.42913 0.90291,-1.59802 0.63316,-0.15783 1.33678,0.36078 1.37002,1.01324 0.67582,2.1102 0.97534,4.40638 0.44302,6.58339 -0.25215,0.81622 -0.91777,1.40036 -1.50993,1.97574"
       id="path115-49"
       inkscape:connector-curvature="0" />
    <path
       style="fill:#ffffff;stroke:none;stroke-width:0.26458332px;stroke-linecap:butt;stroke-linejoin:miter;stroke-opacity:1"
       d="m 99.56667,202.32518 c -0.68107,-2.03343 -0.57427,-4.20687 -0.56068,-6.31972 -0.0672,-0.63944 0.21878,-1.42913 0.90291,-1.59802 0.63316,-0.15783 1.33678,0.36078 1.37002,1.01324 0.67582,2.1102 0.97534,4.40638 0.44302,6.58339 -0.25215,0.81622 -0.91777,1.40036 -1.50993,1.97574"
       id="path115-40"
       inkscape:connector-curvature="0" />
    <path
       style="fill:#ffffff;stroke:none;stroke-width:0.26458332px;stroke-linecap:butt;stroke-linejoin:miter;stroke-opacity:1"
       d="m 110.25745,210.8778 c -0.68107,-2.03343 -0.57427,-4.20687 -0.56068,-6.31972 -0.0672,-0.63944 0.21878,-1.42913 0.90291,-1.59802 0.63316,-0.15783 1.33678,0.36078 1.37002,1.01324 0.67582,2.1102 0.97534,4.40638 0.44302,6.58339 -0.25215,0.81622 -0.91777,1.40036 -1.50993,1.97574"
       id="path115-86"
       inkscape:connector-curvature="0" />
    <path
       style="fill:#ffffff;stroke:none;stroke-width:0.26458332px;stroke-linecap:butt;stroke-linejoin:miter;stroke-opacity:1"
       d="m 146.07157,161.16567 c -0.68108,-2.03343 -0.57427,-4.20687 -0.56068,-6.31972 -0.0672,-0.63944 0.21878,-1.42913 0.9029,-1.59802 0.63316,-0.15783 1.33679,0.36078 1.37003,1.01324 0.67581,2.1102 0.97533,4.40638 0.44302,6.58339 -0.25215,0.81622 -0.91777,1.40036 -1.50993,1.97574"
       id="path115-5"
       inkscape:connector-curvature="0" />
    <path
       style="fill:#ffffff;stroke:none;stroke-width:0.26458332px;stroke-linecap:butt;stroke-linejoin:miter;stroke-opacity:1"
       d="m 149.54607,136.57687 c -0.68107,-2.03343 -0.57427,-4.20687 -0.56068,-6.31972 -0.0672,-0.63944 0.21878,-1.42913 0.9029,-1.59802 0.63317,-0.15783 1.33679,0.36078 1.37003,1.01324 0.67582,2.1102 0.97534,4.40638 0.44302,6.58339 -0.25215,0.81622 -0.91777,1.40036 -1.50993,1.97574"
       id="path115-00"
       inkscape:connector-curvature="0" />
    <path
       style="fill:#ffffff;stroke:none;stroke-width:0.26458332px;stroke-linecap:butt;stroke-linejoin:miter;stroke-opacity:1"
       d="m 147.40792,113.85897 c -0.68108,-2.03343 -0.57428,-4.20687 -0.56069,-6.31972 -0.0672,-0.63944 0.21878,-1.42913 0.90291,-1.59802 0.63316,-0.15783 1.33678,0.36078 1.37003,1.01324 0.67581,2.1102 0.97533,4.40638 0.44302,6.58339 -0.25216,0.81622 -0.91777,1.40036 -1.50993,1.97574"
       id="path115-347"
       inkscape:connector-curvature="0" />
    <path
       style="fill:#ffffff;stroke:none;stroke-width:0.26458332px;stroke-linecap:butt;stroke-linejoin:miter;stroke-opacity:1"
       d="m 108.14458,100.2227 c -0.68108,-2.033429 -0.57428,-4.206869 -0.56068,-6.319719 -0.0672,-0.63944 0.21877,-1.42913 0.9029,-1.59802 0.63316,-0.15783 1.33678,0.36078 1.37003,1.01324 0.67581,2.1102 0.97533,4.40638 0.44302,6.58339 -0.25216,0.816219 -0.91777,1.400359 -1.50993,1.975739"
       id="path115-47"
       inkscape:connector-curvature="0" />
    <path
       style="fill:#ffffff;stroke:none;stroke-width:0.26458332px;stroke-linecap:butt;stroke-linejoin:miter;stroke-opacity:1"
       d="m 82.995966,112.25536 c -0.68108,-2.03343 -0.57427,-4.20687 -0.56068,-6.31972 -0.0672,-0.63944 0.21878,-1.42913 0.9029,-1.59802 0.63316,-0.15783 1.33678,0.36078 1.37003,1.01324 0.67581,2.1102 0.97533,4.40638 0.44302,6.58339 -0.25216,0.81622 -0.91777,1.40036 -1.50993,1.97574"
       id="path115-473"
       inkscape:connector-curvature="0" />
    <path
       style="fill:#ffffff;stroke:none;stroke-width:0.26458332px;stroke-linecap:butt;stroke-linejoin:miter;stroke-opacity:1"
       d="m 62.965948,123.5666 c -0.681074,-2.03343 -0.574271,-4.20687 -0.56068,-6.31972 -0.06718,-0.63944 0.218779,-1.42913 0.902904,-1.59802 0.633162,-0.15783 1.336784,0.36078 1.370027,1.01324 0.675814,2.1102 0.975335,4.40638 0.443019,6.58339 -0.252152,0.81622 -0.917769,1.40036 -1.509928,1.97574"
       id="path115-27"
       inkscape:connector-curvature="0" />
    <path
       style="fill:#ffffff;stroke:none;stroke-width:0.26458332px;stroke-linecap:butt;stroke-linejoin:miter;stroke-opacity:1"
       d="m 51.725428,155.82029 c -0.681074,-2.03343 -0.574271,-4.20687 -0.56068,-6.31972 -0.06718,-0.63944 0.218779,-1.42913 0.902904,-1.59802 0.633162,-0.15783 1.336784,0.36078 1.370027,1.01324 0.675814,2.1102 0.975335,4.40638 0.443019,6.58339 -0.252152,0.81622 -0.917769,1.40036 -1.509928,1.97574"
       id="path115-11"
       inkscape:connector-curvature="0" />
    <path
       style="opacity:1;fill:#000000;fill-opacity:1;stroke:none;stroke-width:0.52916664;stroke-linecap:round;stroke-linejoin:round;stroke-miterlimit:4;stroke-dasharray:none;stroke-opacity:1"
       d="m 124.82959,70.910917 c -6.04995,0.439984 -12.81061,0.497351 -18.77715,2.592605 -6.723656,0.696216 -12.191721,4.436097 -18.093985,7.104994 -4.535114,3.501501 -10.206445,1.781534 -15.274004,4.661214 -4.588888,2.17156 -8.991362,3.836771 -13.069485,6.980452 -5.763122,4.097025 -11.360639,8.753818 -15.718422,14.131958 -3.593679,4.62739 -6.143196,9.61893 -8.493538,14.85335 -2.886384,6.66394 -4.718063,13.73377 -4.550571,20.98821 -0.520044,11.96111 1.073936,23.71498 5.802175,34.74172 3.344061,7.33715 7.315078,14.59187 12.863814,20.61373 7.610107,8.84363 16.543858,16.49701 26.146476,23.08661 5.786102,3.79043 11.439269,8.03702 17.325806,11.94536 4.890201,2.98792 9.951634,5.47205 15.320414,7.57312 2.91741,1.61354 6.2491,2.48117 9.50133,3.40812 3.44765,0.11164 0.18784,0.0625 5.24929,1.01183 2.19901,0.15177 6.87026,-2.07493 6.9696,-4.12947 3.15461,-3.21133 6.24071,-7.85526 9.20047,-11.71608 3.76364,-5.34417 6.06757,-10.66124 9.87816,-15.86954 3.48164,-4.9621 6.61523,-10.23766 9.86318,-16.66373 2.42127,-4.58436 7.24091,-12.26407 10.16517,-18.37189 4.38763,-9.61691 8.75433,-19.79584 11.46294,-30.17608 1.27735,-7.30974 0.68004,-14.9211 0.21044,-22.09902 -0.33033,-5.40976 -1.72647,-12.24905 -3.87315,-17.8108 -3.21396,-6.87428 -6.07705,-12.69617 -10.80318,-18.440448 -5.2318,-6.134473 -8.07637,-7.626586 -14.17774,-11.368977 -6.17778,-3.67969 -13.15657,-5.189209 -20.15741,-6.589387 -2.2405,0.178261 -4.63195,-0.152717 -6.97063,-0.457851 z m 5.09116,170.171003 c -0.48994,-0.0978 -0.27569,0.56697 0,0 z m -9.81594,2.85099 c 7.8e-4,-0.008 -0.0253,-0.006 0,0 z M 113.76463,86.61125 c 7.35152,0.308001 14.48975,0.242176 21.50205,1.492414 4.57079,1.639681 9.2146,3.066092 13.04571,6.413563 3.88969,2.326847 6.89383,5.571343 9.00307,9.794233 1.62532,2.332 5.98055,8.54817 6.80475,13.48807 1.75723,6.19051 2.114,12.8193 2.11925,19.40398 0.0766,1.22326 -0.28845,9.79389 -2.80431,13.85658 -2.6756,7.79992 -6.01609,14.59983 -9.03114,21.76037 -3.74073,6.69387 -7.86345,13.21892 -11.19001,20.23494 -3.44876,6.74652 -8.47874,12.6451 -11.93364,19.35437 -3.0947,5.62414 -7.15194,11.14228 -11.12956,15.88017 -3.40778,-0.82026 -6.62072,-2.86183 -10.31616,-3.94395 -5.6749,-2.84382 -11.251158,-5.56218 -16.384014,-9.05836 -6.265802,-3.91898 -12.416856,-8.21937 -18.285989,-12.86874 -5.765215,-4.46263 -10.724785,-9.74681 -15.632882,-15.0858 -5.132541,-5.96451 -7.981408,-11.59995 -10.899659,-18.61855 -2.51056,-6.53496 -3.66381,-13.49361 -3.66585,-20.43367 -0.393562,-5.74564 -0.01263,-11.34162 1.479498,-16.90284 2.49487,-5.02129 4.30799,-10.65847 8.046098,-15.69355 5.310023,-5.90586 11.637827,-11.518 18.750197,-15.16348 3.691044,-1.895579 8.036735,-3.013121 11.946213,-4.313411 2.242283,-4.428704 11.111566,-5.965137 16.729558,-8.260503 3.89099,-0.879186 7.88429,-0.804333 11.84682,-1.335836 z m -68.919822,55.04677 c -0.641527,2.13934 1.035537,0.44324 0,0 z m 78.345092,87.34919 c 0.11236,-0.0289 0.005,0.22649 0,0 z m 1.65726,0.0796 c 1.0685,0.1976 -0.20939,0.0871 0,0 z m -4.37958,14.79134 c 0.43499,0.19319 -0.24154,0.0657 0,0 z"
       id="path106"
       inkscape:connector-curvature="0" />
    <path
       style="fill:#008000;stroke:none;stroke-width:0.26458332px;stroke-linecap:butt;stroke-linejoin:miter;stroke-opacity:1"
       d="m 74.78917,73.228992 c -7.017245,-3.223998 -15.0145,-3.084241 -22.554367,-2.663343 -9.05976,1.971694 -18.497378,4.987594 -24.616086,12.408323 -9.4719,10.113847 -13.869739,24.043938 -14.217416,37.695618 0.426389,3.59303 -1.710704,10.47573 0.970314,12.18022 5.039451,-5.94407 11.714351,-10.01235 18.32096,-13.98164 11.016902,-6.8882 20.496194,-15.88711 29.957913,-24.714161 1.944344,-1.74881 7.858144,-8.667367 3.536534,-2.969219 -4.595797,7.3593 -8.472137,15.7637 -7.700895,24.63992 -0.283865,6.52468 -0.231069,13.35395 3.17955,19.17571 2.799336,5.30512 7.427578,-4.40093 10.265271,-6.23871 8.655326,-9.50652 16.566893,-20.63515 18.091042,-33.7417 0.887111,-3.211737 -0.583727,-9.071093 1.697804,-10.691336 7.052213,5.1174 15.063466,8.905644 23.610326,10.563338 5.75506,1.321725 11.77482,0.979809 17.61356,0.709054 4.36292,-2.102657 12.68812,-1.515325 14.28303,-5.335609 -2.26438,-4.575251 -7.83977,-7.130759 -11.86637,-10.280106 -7.96612,-5.318248 -17.9389,-5.519364 -27.21514,-5.38664 -2.80444,-0.09076 -5.59107,0.434726 -0.92491,-1.110788 9.15762,-3.020167 18.93391,-3.645105 28.50231,-4.25199 4.97518,-0.842513 10.81088,-0.006 15.18171,-1.677908 4.62922,-1.770738 -2.31606,-8.019477 -5.48826,-9.51524 -13.70854,-6.463883 -31.42004,-9.355797 -42.4138,0.519402 -2.28453,2.064148 -5.315035,6.307001 -5.315035,6.307001 0,0 -1.251973,-14.562375 -6.847553,-16.123922 -5.298944,-1.528968 -8.823951,2.654499 -11.888978,6.24232 -3.294356,3.442113 -4.430414,9.60582 -5.055322,13.276175 0.04591,1.686516 -0.618361,3.734324 0.893808,4.965231 z"
       id="path350"
       inkscape:connector-curvature="0"
       sodipodi:nodetypes="ccccccccccccccccccccsscccccc" />
  </g>
</svg>
